<?xml version="1.0" encoding="UTF-8"?><svg id="a" xmlns="http://www.w3.org/2000/svg" viewBox="0 0 600 187.75"><defs><style>.b{fill:#1d1d1b;}.c{fill:#ffc900;}</style></defs><g><path class="c" d="M32.99,95.48H13.09l7.54-28.11H95.43l-8.75,28.51h-19.91v66.51H33.15l-.15-66.91Z"/><path class="c" d="M106.41,67.37h33.36l19.19,20.06,17.72-20.06h32.48v95.02h-30.85v-52.92l-18.9,20.45-19.93-19v51.47h-33.07V67.37Z"/><path class="c" d="M225.43,67.37c15.25,1.13,57.72-3.45,70.8,4.83,24.45,11.51,24.33,48.2,.46,59.43l19.2,30.76h-41.16l-14.9-28.11v28.11h-34.4V67.37Zm34.4,43.15c8.33,.36,23.75,.6,19.58-10.4-2.03-7.04-13.51-4.76-19.58-5.17v15.57Z"/></g><g><path class="c" d="M399.43,43.61l-29.72,16.54c-.12,.07-.22,.17-.27,.3-1.1,2.66-13.32,32.2-15.9,40.62-.03,.11-.04,.21,0,.32,.63,2.39,8.65,31.27,31.22,51.18,.05,.05,.11,.08,.18,.11,2.9,1.07,72.83,26.41,107.8,.71,.37-.28,.33-.86-.09-1.06-6.78-3.35-49.87-27.1-92.35-108.44-.16-.31-.55-.43-.85-.26Z"/><path class="b" d="M452.08,168.92c-32.91,.59-66.54-11.58-68.6-12.33-.58-.23-1.03-.5-1.44-.85-23.38-20.62-31.68-50.01-32.55-53.29-.23-.86-.21-1.76,.05-2.62,2.63-8.61,14.67-37.7,16.03-40.99,.4-.98,1.15-1.82,2.1-2.35l29.72-16.54c1.12-.62,2.47-.77,3.7-.4,1.23,.37,2.29,1.23,2.88,2.38,42.37,81.14,85.7,104.27,90.5,106.64,1.51,.75,2.5,2.2,2.65,3.88,.15,1.68-.57,3.28-1.93,4.29-11.86,8.72-27.41,11.9-43.12,12.18Zm-65.07-19.94c6.76,2.42,65.26,22.43,98.42,4.11-14.64-8.84-50.93-36.01-87.15-104.06l-25.46,14.17c-2.34,5.65-12.15,29.51-14.97,38.1,1.57,5.33,9.68,30.2,29.17,47.69Zm-29.47-46.71v0Zm.03-1.96h0Zm15.73-38.28v0Z"/><path class="b" d="M580.14,126.57l6.78-4.21c-6.53-3.99-12.9-8.19-19.14-12.58-34.21-24.12-63.88-54.25-87.46-88.86-1.14-1.67-3.21-2.45-5.17-1.96l-61.97,15.66c-3.07,.78-4.58,4.25-3.05,7.02,21.99,39.85,51.56,74.93,86.78,103.29,6.67,5.37,13.53,10.51,20.6,15.39,1.32,.91,2.64,1.81,3.97,2.7l5.78-3.59c1.5-.93,1.56-3.08,.13-4.1-5.03-3.57-15.1-10.79-20.65-15.23h0c3.83-1.89,7.61-3.75,11.31-5.58,7.34,5.62,14.91,10.95,22.7,15.98,.27,.17,.61,.18,.88,0l7.39-4.59c.51-.32,.52-1.06,.01-1.38-7.24-4.7-14.29-9.65-21.15-14.86h0c4.23-2.09,7.5-3.69,11.31-5.58,6.8,5.01,13.79,9.77,20.96,14.28,.27,.17,.61,.17,.87,0l7.38-4.59c.51-.32,.52-1.07,0-1.39-6.61-4.18-19.37-13.19-19.37-13.19l8.95-4.48c5.82,4.13,11.76,8.08,17.83,11.86,1.32,.82,3,.81,4.32,0Z"/></g></svg>